<svg width="200" height="30" viewBox="0 0 200 30" fill="none" xmlns="http://www.w3.org/2000/svg">
<g clip-path="url(#clip0_29_402)">
<path d="M2.54261 3.36653C2.41264 3.36485 2.28389 3.39165 2.16539 3.44503C2.04689 3.4984 1.94151 3.57708 1.85665 3.67552C1.77179 3.77395 1.7095 3.88978 1.67417 4.01485C1.63883 4.13993 1.6313 4.27122 1.65211 4.3995L5.43226 27.3476C5.47936 27.6283 5.62389 27.8836 5.84049 28.0684C6.05708 28.2533 6.33188 28.3559 6.61662 28.3583H24.7516C24.9649 28.3611 25.1723 28.2869 25.3358 28.1497C25.4992 28.0124 25.6079 27.8209 25.6421 27.6102L29.4311 4.40842C29.4519 4.28012 29.4443 4.14883 29.4091 4.02375C29.3737 3.89868 29.3114 3.78287 29.2266 3.68442C29.1417 3.58598 29.0363 3.50732 28.9178 3.45393C28.7993 3.40055 28.6706 3.37377 28.5406 3.37544L2.54261 3.36653ZM18.4602 19.9519H12.672L11.1047 11.7684H19.8627L18.4602 19.9519Z" fill="white"/>
<path d="M28.2202 11.7681H19.8629L18.4604 19.9518H12.6722L5.83765 28.0686C6.05427 28.2559 6.33046 28.36 6.61682 28.3624H24.7562C24.9697 28.3651 25.1769 28.2911 25.3404 28.1539C25.5038 28.0166 25.6126 27.8251 25.6467 27.6144L28.2202 11.7681Z" fill="white"/>
<path d="M53.6885 2.61865C58.938 2.61865 61.4849 5.20554 61.4849 9.3597C61.4849 12.4764 60.0734 14.3732 57.1749 15.0811C60.9773 15.7089 62.8563 17.7838 62.8563 21.4303C62.8563 25.5444 60.0734 28.3673 54.3164 28.3673H43.6973V2.61865H53.6885ZM47.2236 5.98918V13.6652H53.2166C56.547 13.6652 57.9184 12.138 57.9184 9.65801C57.9184 7.17799 56.4313 5.97582 53.2166 5.97582L47.2236 5.98918ZM47.2236 16.8042V24.8187H54.4321C57.8026 24.8187 59.3299 23.6032 59.3299 21.0163C59.3299 18.2736 57.8784 16.7864 54.3564 16.7864L47.2236 16.8042Z" fill="white"/>
<path d="M68.6175 1.24731C68.9321 1.2248 69.2477 1.27018 69.5431 1.38036C69.8386 1.49055 70.1068 1.66296 70.3298 1.88593C70.5528 2.10889 70.7252 2.37718 70.8353 2.6726C70.9456 2.96804 70.991 3.2837 70.9685 3.59821C70.9685 4.22171 70.7207 4.81968 70.2798 5.26055C69.839 5.70144 69.241 5.94911 68.6175 5.94911C67.994 5.94911 67.3961 5.70144 66.9552 5.26055C66.5143 4.81968 66.2666 4.22171 66.2666 3.59821C66.2441 3.2837 66.2895 2.96804 66.3997 2.6726C66.5098 2.37718 66.6822 2.10889 66.9052 1.88593C67.1282 1.66296 67.3965 1.49055 67.692 1.38036C67.9873 1.27018 68.303 1.2248 68.6175 1.24731ZM66.8945 8.76754H70.265V28.3584H66.8945V8.76754Z" fill="white"/>
<path d="M83.1329 25.0723C83.8452 25.0511 84.5537 24.9586 85.2477 24.7963V28.0466C84.5093 28.2576 83.7448 28.3626 82.977 28.3583C78.7827 28.3583 76.7435 25.8916 76.7435 22.2451V11.9019H73.5688V8.78519H76.7435V4.61768H80.0161V8.77184H85.2255V11.8886H80.0161V22.1693C80.0161 23.8924 81.0357 25.0723 83.1329 25.0723Z" fill="white"/>
<path d="M99.139 28.7501C96.2805 28.7501 94.0854 27.4588 92.9055 24.9121V28.3583H89.535V0.58374H92.9278V12.2937C94.1834 9.70685 96.5343 8.37556 99.5487 8.37556C104.758 8.37556 107.385 12.8013 107.385 18.5628C107.367 24.0883 104.624 28.7501 99.139 28.7501ZM98.6269 11.5101C95.5993 11.5101 92.9278 13.4336 92.9278 17.7792V19.3464C92.9278 23.6966 95.3944 25.6156 98.2708 25.6156C102.073 25.6156 104.032 23.1088 104.032 18.5628C103.997 13.8611 102.118 11.5101 98.6269 11.5101Z" fill="white"/>
<path d="M110.894 8.76733H114.264V20.6198C114.264 24.1462 115.676 25.7134 118.886 25.7134C122.003 25.7134 124.175 23.6386 124.175 19.6803V8.76733H127.546V28.3582H124.175V25.1479C123.575 26.2602 122.68 27.1853 121.588 27.8217C120.496 28.4579 119.25 28.7807 117.986 28.7544C113.481 28.7544 110.894 25.6378 110.894 20.2503V8.76733Z" fill="white"/>
<path d="M146.469 27.8509C145.294 28.4787 143.49 28.7414 141.688 28.7414C134.715 28.7414 131.446 24.5116 131.446 18.5007C131.446 12.5834 134.696 8.35353 141.688 8.35353C143.298 8.30782 144.898 8.63866 146.358 9.31972V12.4364C144.966 11.7856 143.441 11.4684 141.905 11.5103C136.811 11.5103 134.736 14.7251 134.736 18.5229C134.736 22.3209 136.87 25.5178 142.004 25.5178C143.518 25.5578 145.028 25.3193 146.456 24.8143L146.469 27.8509Z" fill="white"/>
<path d="M150.311 28.3583V0.58374H153.681V17.9484L162.106 8.78074H166.496L157.284 18.3937L166.884 28.3583H162.298L153.678 19.1906V28.3583H150.311Z" fill="white"/>
<path d="M178.05 28.7499C170.721 28.7499 167.511 24.5201 167.511 18.5092C167.511 12.5919 170.801 8.36206 176.759 8.36206C182.791 8.36206 185.219 12.5563 185.219 18.5092V20.0364H170.918C171.389 23.3669 173.544 25.5219 178.166 25.5219C180.199 25.5201 182.215 25.1613 184.123 24.4622V27.5789C182.516 28.4383 180.049 28.7499 178.05 28.7499ZM170.881 17.1736H181.813C181.616 13.5314 179.969 11.4521 176.603 11.4521C173.033 11.4343 171.234 13.7451 170.881 17.1557V17.1736Z" fill="white"/>
<path d="M196.974 25.0723C197.687 25.0511 198.395 24.9586 199.089 24.7963V28.0466C198.35 28.2576 197.585 28.3626 196.818 28.3583C192.624 28.3583 190.584 25.8916 190.584 22.2451V11.9019H187.41V8.78519H190.584V4.61768H193.875V8.77184H199.084V11.8886H193.875V22.1693C193.879 23.8924 194.89 25.0723 196.974 25.0723Z" fill="white"/>
</g>
<defs>
<clipPath id="clip0_29_402">
<rect width="198.75" height="30" fill="white" transform="translate(0.882812)"/>
</clipPath>
</defs>
</svg>
