<svg width="134" height="30" viewBox="0 0 134 30" fill="none" xmlns="http://www.w3.org/2000/svg">
<g clip-path="url(#clip0_29_401)">
<path d="M65.2338 7.8254C62.5481 7.8254 59.8922 8.97752 57.8722 11.2518V0.0598145H53.8698V18.9052C53.8698 25.0249 58.8299 29.985 64.9496 29.985C71.0693 29.985 76.0294 25.0249 76.0294 18.9052C76.0294 12.7855 71.3535 7.8254 65.2338 7.8254ZM64.9421 25.7132C61.179 25.7132 58.1341 22.6608 58.1341 18.9052C58.1341 15.1496 61.1865 12.0972 64.9421 12.0972C68.7052 12.0972 71.7501 15.1496 71.7501 18.9052C71.7501 22.6608 68.7052 25.7132 64.9421 25.7132Z" fill="white"/>
<path d="M90.0493 7.8254C87.3635 7.8254 84.7076 8.97752 82.6877 11.2518V0.0598145H78.6852V18.9052C78.6852 25.0249 83.6453 29.985 89.765 29.985C95.8847 29.985 100.845 25.0249 100.845 18.9052C100.845 12.7855 96.1615 7.8254 90.0493 7.8254ZM89.7575 25.7132C85.9944 25.7132 82.9495 22.6608 82.9495 18.9052C82.9495 15.1496 86.0019 12.0972 89.7575 12.0972C93.5206 12.0972 96.5655 15.1496 96.5655 18.9052C96.5655 22.6608 93.5206 25.7132 89.7575 25.7132Z" fill="white"/>
<path d="M31.3361 20.843V8.42407H35.6303V20.8056C35.6303 23.9702 37.4632 25.9976 40.553 25.9976C43.6802 25.9976 45.4757 24.045 45.4757 20.8056V8.42407H49.8074V20.843C49.8074 26.5812 46.3286 29.9777 40.553 29.9777C34.9271 29.9852 31.3361 26.469 31.3361 20.843Z" fill="white"/>
<path d="M108.588 29.4763H104.294V0.0598145H108.588V29.4763Z" fill="white"/>
<path d="M132.902 20.611H116.466C117.094 23.8879 119.391 26.1173 123.453 26.1173C125.832 26.1173 128.728 25.2195 130.598 23.8504L132.393 27.015C130.246 28.616 126.85 29.9402 123.296 29.9402C115.411 29.9402 112.014 24.434 112.014 18.8903C112.014 15.7258 112.987 13.1148 114.984 11.0425C116.975 8.97015 119.593 7.91528 122.758 7.91528C125.765 7.91528 128.264 8.85044 130.179 10.7657C132.094 12.6809 133.067 15.2544 133.067 18.5387C133.052 19.1297 133.014 19.833 132.902 20.611ZM116.458 17.0948H128.72C128.369 13.7731 125.907 11.626 122.743 11.626C119.503 11.626 117.087 13.818 116.458 17.0948Z" fill="white"/>
<path d="M17.6976 7.8254C15.0118 7.8254 12.356 8.97752 10.336 11.2518V0.0598145H6.32605V18.9052C6.32605 25.0249 11.2862 29.985 17.4059 29.985C23.5256 29.985 28.4857 25.0249 28.4857 18.9052C28.4857 12.7855 23.8098 7.8254 17.6976 7.8254ZM17.4059 25.7132C13.6428 25.7132 10.5979 22.6608 10.5979 18.9052C10.5979 15.1496 13.6502 12.0972 17.4059 12.0972C21.1689 12.0972 24.2138 15.1496 24.2138 18.9052C24.2138 22.6608 21.1689 25.7132 17.4059 25.7132Z" fill="white"/>
<path d="M3.41589 29.9775C4.92813 29.9775 6.15405 28.7516 6.15405 27.2394C6.15405 25.7271 4.92813 24.5012 3.41589 24.5012C1.90365 24.5012 0.677734 25.7271 0.677734 27.2394C0.677734 28.7516 1.90365 29.9775 3.41589 29.9775Z" fill="white"/>
</g>
<defs>
<clipPath id="clip0_29_401">
<rect width="132.494" height="30" fill="white" transform="translate(0.632812)"/>
</clipPath>
</defs>
</svg>
