<svg width="105" height="30" viewBox="0 0 105 30" fill="none" xmlns="http://www.w3.org/2000/svg">
<g clip-path="url(#clip0_29_404)">
<path d="M15.1079 29.6841C19.5684 29.6841 22.529 28.2631 25.1342 25.9736C25.5685 25.5788 25.9237 24.9867 25.9237 24.2367C25.9237 23.0131 24.8579 21.9867 23.6343 21.9867C23.0421 21.9867 22.529 22.2236 22.1737 22.5394C20.1606 24.2367 18.1869 25.1841 15.2658 25.1841C9.97635 25.1841 6.14739 20.8025 6.14739 15.3946V15.3157C6.14739 9.90779 10.0158 5.56569 15.2658 5.56569C17.9106 5.56569 19.9632 6.51306 21.8579 8.05253C22.1737 8.28937 22.6474 8.52621 23.3184 8.52621C24.6605 8.52621 25.7264 7.4999 25.7264 6.15779C25.7264 5.28937 25.2921 4.61832 24.779 4.22358C22.3711 2.36832 19.5684 1.10516 15.3053 1.10516C6.93687 1.10516 1.0553 7.53937 1.0553 15.3946V15.4736C1.0553 23.4078 7.05529 29.6841 15.1079 29.6841ZM32.3202 5.36832C33.8596 5.36832 35.0438 4.42095 35.0438 2.9999V2.76306C35.0438 1.342 33.8596 0.434107 32.3202 0.434107C30.7807 0.434107 29.5965 1.342 29.5965 2.76306V2.9999C29.5965 4.42095 30.7807 5.36832 32.3202 5.36832ZM32.3202 29.4078C33.6623 29.4078 34.7281 28.3815 34.7281 27.0394V10.5394C34.7281 9.19726 33.6623 8.13148 32.3202 8.13148C30.9781 8.13148 29.9518 9.19726 29.9518 10.5394V27.0394C29.9518 28.3815 31.0175 29.4078 32.3202 29.4078ZM42.1508 29.4078C43.4929 29.4078 44.5587 28.342 44.5587 27.0394V20.8815C44.5587 15.9473 46.8876 13.342 50.2824 12.7499C51.3482 12.5525 52.1771 11.7236 52.1771 10.4604C52.1771 9.07885 51.3087 8.092 49.8087 8.092C47.7166 8.092 45.664 10.0657 44.5587 12.6709V10.5394C44.5587 9.19726 43.4929 8.13148 42.1508 8.13148C40.8087 8.13148 39.7824 9.19726 39.7824 10.5394V27.0394C39.7824 28.3815 40.8482 29.4078 42.1508 29.4078ZM63.8236 29.6841C67.2973 29.6841 69.5473 28.4999 71.4025 26.7236C71.8367 26.3683 72.0736 25.8552 72.0736 25.2236C72.0736 24.0788 71.1657 23.1315 70.0209 23.1315C69.4683 23.1315 68.9946 23.4078 68.7183 23.6446C67.4157 24.7499 65.9552 25.4999 64.0604 25.4999C60.3894 25.4999 57.8236 22.5394 57.8236 18.8288V18.7499C57.8236 15.1183 60.3894 12.1183 63.8631 12.1183C65.7578 12.1183 67.0999 12.8683 68.3236 13.8946C68.6394 14.1315 69.1525 14.3683 69.7446 14.3683C70.9683 14.3683 71.9552 13.421 71.9552 12.1973C71.9552 11.4078 71.5209 10.8157 71.2051 10.5394C69.4288 8.9999 67.1788 7.93411 63.9025 7.93411C57.6262 7.93411 53.0473 12.9078 53.0473 18.8288V18.9078C53.0473 24.8288 57.6262 29.6841 63.8236 29.6841ZM78.1937 29.4078C79.5358 29.4078 80.6016 28.3815 80.6016 27.0394V2.56569C80.6016 1.26306 79.5358 0.197266 78.1937 0.197266C76.8516 0.197266 75.8253 1.26306 75.8253 2.56569V27.0394C75.8253 28.3815 76.8911 29.4078 78.1937 29.4078ZM95.2086 29.6841C98.4454 29.6841 100.814 28.6183 102.709 26.9209C103.064 26.5657 103.34 26.0525 103.34 25.4604C103.34 24.3552 102.511 23.5262 101.445 23.5262C100.893 23.5262 100.577 23.6841 100.222 23.9604C98.8796 25.0657 97.3007 25.7762 95.2875 25.7762C92.2086 25.7762 89.8007 23.8815 89.2875 20.4867H102.353C103.577 20.4867 104.603 19.5394 104.603 18.1973C104.603 13.3815 101.327 7.93411 94.6954 7.93411C88.7349 7.93411 84.5112 12.8288 84.5112 18.7894V18.8683C84.5112 25.3025 89.1691 29.6841 95.2086 29.6841ZM99.9454 17.3288H89.248C89.6823 14.092 91.7349 11.842 94.656 11.842C97.8138 11.842 99.6296 14.2499 99.9454 17.3288Z" fill="white"/>
</g>
<defs>
<clipPath id="clip0_29_404">
<rect width="104.211" height="30" fill="white" transform="translate(0.705078)"/>
</clipPath>
</defs>
</svg>
