<?xml version="1.0" encoding="UTF-8" standalone="no"?>
<svg
   width="674.58197"
   height="108.342"
   viewBox="0 0 674.58197 108.342"
   fill="none"
   version="1.1"
   id="svg12"
   xmlns="http://www.w3.org/2000/svg"
   xmlns:svg="http://www.w3.org/2000/svg">
  <defs
     id="defs12" />
  <g
     id="g12">
    <path
       d="M 97.6185,1.65163 C 96.7122,0.74573 95.4958,0.183842 94.2106,0.103573 74.2671,-1.1234 61.3579,8.95616 54.5075,18.4279 47.6339,8.95616 34.7363,-1.13487 14.7814,0.103573 13.4847,0.183842 12.2684,0.74573 11.3619,1.65163 -1.4441,14.4604 -0.0441586,34.6309 0.127965,36.6032 0.208289,38.0367 1.03448,47.9788 7.55223,59.3885 13.7946,70.3166 26.6809,84.8568 52.6829,92.1498 c 0.1263,0.046 0.2753,0.0804 0.4132,0.1261 0.1032,0.0344 0.195,0.046 0.2985,0.0688 0.126,0.0344 0.2636,0.0457 0.4015,0.069 0.2295,0.0458 0.4703,0.0458 0.7001,0.0458 0.2294,0 0.4473,0 0.6653,-0.0458 0.1263,-0.0233 0.2409,-0.046 0.3674,-0.0576 0.1146,-0.0228 0.2178,-0.0458 0.3327,-0.0802 0.149,-0.0457 0.2983,-0.0801 0.4589,-0.1261 C 104.378,78.6416 108.543,40.3185 108.83,36.7294 108.956,35.5598 110.712,14.7585 97.6071,1.6631 Z M 49.2176,46.2472 49.1716,46.2012 34.9428,30.8813 c -1.9853,-2.1445 -5.3474,-2.2704 -7.4816,-0.2867 -2.1459,1.9953 -2.2722,5.3434 -0.2867,7.4762 l 21.9971,23.6912 0.046,0.0458 v 18.1409 c 0,0 -0.0346,0 -0.046,0 C 12.7389,66.6698 10.7652,37.28 10.7078,35.984 c 0,-0.0917 -0.0229,-0.1949 -0.0229,-0.2867 -0.023,-0.1602 -1.38849,-15.297 6.8275,-25.1128 0.2181,0 0.4246,0 0.6426,0 20.9301,0 29.2497,15.8015 31.0166,19.7808 0,0.0344 0.0347,0.0571 0.046,0.0917 z M 98.3071,35.7087 c 0,0.0804 -0.023,0.1836 -0.023,0.264 -0.0688,1.3187 -2.0424,30.6972 -38.475,43.9416 -0.0233,0 -0.0347,0 -0.046,0.023 V 61.8078 l 0.046,-0.0458 21.9971,-23.6912 c 1.9852,-2.1328 1.859,-5.4809 -0.2867,-7.4762 -2.1459,-1.9837 -5.4966,-1.8578 -7.4932,0.2867 l -14.2172,15.3199 -0.046,0.046 V 30.457 c 0,0 0.0344,-0.069 0.046,-0.1147 1.7555,-3.9218 10.1897,-19.7578 31.0394,-19.7578 0.2065,0 0.4015,0 0.6082,0 8.1587,9.7584 6.8504,24.9639 6.8391,25.1128 z"
       fill="#88B04B"
       id="path1"
       style="fill:#ffffff" />
    <path
       d="m 196.82,4.32272 c 0.849,0 1.584,0.30958 2.192,0.92883 0.62,0.61922 0.93,1.35312 0.93,2.19022 v 8.19893 c 0,0.8486 -0.31,1.5825 -0.93,2.1902 -0.62,0.6078 -1.354,0.9289 -2.192,0.9289 h -36.88 v 23.5761 h 34.574 c 0.849,0 1.583,0.3098 2.192,0.9289 0.608,0.6195 0.929,1.3534 0.929,2.1902 v 8.1989 c 0,0.8487 -0.31,1.5827 -0.929,2.1905 -0.62,0.6078 -1.354,0.9286 -2.192,0.9286 H 159.94 v 26.4662 c 0,0.8485 -0.31,1.5824 -0.929,2.1902 -0.62,0.6075 -1.354,0.9286 -2.192,0.9286 h -9.364 c -0.849,0 -1.583,-0.3094 -2.191,-0.9286 -0.62,-0.6194 -0.93,-1.3531 -0.93,-2.1902 V 7.45322 c 0,-0.84855 0.31,-1.58245 0.93,-2.19022 0.619,-0.61919 1.354,-0.92882 2.191,-0.92882 h 49.377 z"
       fill="#36485C"
       id="path2"
       style="fill:#ffffff" />
    <path
       d="m 210.636,29.4031 c 0,-0.8487 0.31,-1.5827 0.93,-2.1905 0.619,-0.6191 1.354,-0.9286 2.192,-0.9286 h 8.789 c 0.85,0 1.584,0.3095 2.192,0.9286 0.608,0.6192 0.93,1.3531 0.93,2.1905 v 29.3441 c 0,4.6214 0.986,8.325 2.949,11.0886 1.962,2.7753 5.186,4.1625 9.651,4.1625 4.084,0 7.205,-1.3872 9.362,-4.1625 2.157,-2.775 3.237,-6.4672 3.237,-11.0886 V 29.4031 c 0,-0.8487 0.309,-1.5827 0.928,-2.1905 0.621,-0.6077 1.356,-0.9286 2.193,-0.9286 h 8.788 c 0.85,0 1.585,0.3095 2.194,0.9286 0.606,0.6192 0.93,1.3531 0.93,2.1905 v 53.8491 c 0,0.8484 -0.312,1.5827 -0.93,2.1905 -0.621,0.6191 -1.354,0.9288 -2.194,0.9288 h -8.788 c -0.849,0 -1.584,-0.3097 -2.193,-0.9288 -0.619,-0.6195 -0.928,-1.3534 -0.928,-2.1905 V 80.592 c -1.779,1.7773 -3.972,3.3714 -6.586,4.7933 -2.616,1.4219 -5.785,2.1328 -9.48,2.1328 -4.704,0 -8.594,-0.734 -11.681,-2.1902 -3.087,-1.4679 -5.554,-3.4286 -7.401,-5.8941 -1.848,-2.4656 -3.156,-5.3324 -3.936,-8.6117 -0.769,-3.2797 -1.159,-6.7199 -1.159,-10.3433 V 29.4031 Z"
       fill="#36485C"
       id="path3"
       style="fill:#ffffff" />
    <path
       d="m 293.519,83.2511 c 0,0.8484 -0.309,1.5821 -0.93,2.1899 -0.617,0.6194 -1.351,0.9289 -2.189,0.9289 h -8.791 c -0.85,0 -1.585,-0.3095 -2.191,-0.9289 -0.621,-0.6191 -0.93,-1.3528 -0.93,-2.1899 V 7.45364 c 0,-0.84855 0.309,-1.58245 0.93,-2.19019 0.617,-0.61922 1.354,-0.92886 2.191,-0.92886 h 8.791 c 0.848,0 1.58,0.30964 2.189,0.92886 0.621,0.61922 0.93,1.35309 0.93,2.19019 z"
       fill="#36485C"
       id="path4"
       style="fill:#ffffff" />
    <path
       d="m 321.368,83.2511 c 0,0.8484 -0.311,1.5821 -0.929,2.1899 -0.62,0.6194 -1.354,0.9289 -2.192,0.9289 h -8.788 c -0.851,0 -1.585,-0.3095 -2.195,-0.9289 -0.617,-0.6191 -0.926,-1.3528 -0.926,-2.1899 V 7.45364 c 0,-0.84855 0.309,-1.58245 0.926,-2.19019 0.621,-0.61922 1.358,-0.92886 2.195,-0.92886 h 8.788 c 0.848,0 1.583,0.30964 2.192,0.92886 0.607,0.61922 0.929,1.35309 0.929,2.19019 z"
       fill="#36485C"
       id="path5"
       style="fill:#ffffff" />
    <path
       d="m 403.403,52.2786 c -0.149,1.1584 -0.23,2.4999 -0.23,4.0479 0,1.5481 0.081,2.8898 0.23,4.048 0.23,2.3852 0.77,4.4262 1.618,6.1234 0.85,1.697 1.904,3.0617 3.177,4.1051 1.274,1.0434 2.674,1.8121 4.224,2.3164 1.539,0.5047 3.124,0.7453 4.741,0.7453 1.926,0 3.544,-0.1489 4.852,-0.4586 1.306,-0.3094 2.433,-0.7453 3.351,-1.3301 0.919,-0.5848 1.71,-1.2272 2.376,-1.9609 0.653,-0.7339 1.295,-1.5597 1.905,-2.4883 0.458,-0.6882 0.997,-1.3878 1.617,-2.0757 0.618,-0.6879 1.355,-1.0434 2.192,-1.0434 h 8.791 c 0.848,0 1.593,0.3095 2.246,0.9286 0.656,0.6192 0.943,1.3534 0.872,2.1905 -0.078,1.6168 -0.653,3.5777 -1.733,5.8941 -1.076,2.3161 -2.75,4.5294 -5.026,6.6394 -2.27,2.1101 -5.185,3.9102 -8.732,5.3781 -3.546,1.4677 -7.78,2.19 -12.711,2.19 -4.234,0 -8.057,-0.711 -11.454,-2.1329 -3.398,-1.4218 -6.345,-3.3484 -8.846,-5.7793 -2.503,-2.4309 -4.475,-5.2405 -5.898,-8.4398 -1.422,-3.1995 -2.297,-6.5706 -2.606,-10.1139 -0.149,-1.3875 -0.23,-2.9239 -0.23,-4.6212 0,-1.6972 0.081,-3.2796 0.23,-4.7359 0.23,-3.5433 1.078,-6.9377 2.55,-10.1714 1.465,-3.2336 3.429,-6.066 5.895,-8.4972 2.468,-2.4309 5.415,-4.3571 8.848,-5.7793 3.43,-1.4219 7.263,-2.1329 11.511,-2.1329 4.931,0 9.165,0.734 12.711,2.1903 3.547,1.4679 6.462,3.2567 8.732,5.3781 2.276,2.1215 3.95,4.3347 5.026,6.6394 1.08,2.3164 1.655,4.2771 1.733,5.8941 0.082,0.8485 -0.205,1.5825 -0.872,2.19 -0.653,0.6194 -1.409,0.9291 -2.246,0.9291 h -8.791 c -0.851,0 -1.582,-0.3441 -2.192,-1.0436 -0.62,-0.688 -1.159,-1.3875 -1.617,-2.0755 -0.621,-0.9288 -1.252,-1.7546 -1.905,-2.4883 -0.655,-0.7342 -1.446,-1.3877 -2.376,-1.9611 -0.932,-0.5732 -2.045,-1.0204 -3.351,-1.3301 -1.308,-0.3098 -2.926,-0.4587 -4.852,-0.4587 -1.617,0 -3.202,0.2524 -4.741,0.7454 -1.536,0.5046 -2.95,1.2729 -4.224,2.3163 -1.273,1.0434 -2.327,2.4082 -3.177,4.1052 -0.848,1.6972 -1.388,3.7385 -1.618,6.1234 z"
       fill="#36485C"
       id="path6"
       style="fill:#ffffff" />
    <path
       d="m 482.981,40.1476 c -4.625,0 -7.965,1.0204 -10.008,3.0617 -2.042,2.0411 -3.064,5.3781 -3.064,9.9992 v 30.0437 c 0,0.8484 -0.309,1.5827 -0.929,2.1905 -0.618,0.6078 -1.354,0.9288 -2.192,0.9288 h -8.791 c -0.848,0 -1.579,-0.3097 -2.189,-0.9288 -0.62,-0.6192 -0.929,-1.3534 -0.929,-2.1905 V 29.4031 c 0,-0.8487 0.309,-1.5827 0.929,-2.1905 0.618,-0.6191 1.352,-0.9286 2.189,-0.9286 h 8.791 c 0.851,0 1.585,0.3095 2.192,0.9286 0.62,0.6192 0.929,1.3531 0.929,2.1905 v 2.6602 c 2.008,-1.8461 4.145,-3.2796 6.416,-4.2773 2.273,-0.9976 5.255,-1.502 8.962,-1.502 h 0.85 c 0.848,0 1.582,0.3095 2.189,0.9286 0.61,0.6192 0.932,1.3531 0.932,2.1905 v 7.6254 c 0,0.8488 -0.311,1.5825 -0.932,2.1902 -0.617,0.6192 -1.352,0.9289 -2.189,0.9289 z"
       fill="#36485C"
       id="path7"
       style="fill:#ffffff" />
    <path
       d="m 512.222,4.32272 c 0.848,0 1.582,0.30958 2.189,0.92883 0.621,0.61922 0.929,1.35312 0.929,2.19022 v 9.01313 c 0,0.8485 -0.308,1.5824 -0.929,2.1902 -0.618,0.6077 -1.352,0.9288 -2.189,0.9288 h -9.951 c -0.848,0 -1.585,-0.3096 -2.191,-0.9288 -0.607,-0.6192 -0.93,-1.3531 -0.93,-2.1902 V 7.45322 c 0,-0.84855 0.309,-1.58245 0.93,-2.19022 0.62,-0.60774 1.354,-0.92882 2.191,-0.92882 h 9.951 z m 2.547,78.91648 c 0,0.8485 -0.309,1.5824 -0.929,2.1902 -0.621,0.6075 -1.355,0.9286 -2.192,0.9286 h -8.791 c -0.848,0 -1.585,-0.3094 -2.192,-0.9286 -0.607,-0.6194 -0.929,-1.3531 -0.929,-2.1902 v -53.838 c 0,-0.8485 0.308,-1.5824 0.929,-2.1902 0.62,-0.6078 1.354,-0.9289 2.192,-0.9289 h 8.791 c 0.848,0 1.582,0.3097 2.192,0.9289 0.606,0.6191 0.929,1.3531 0.929,2.1902 v 53.8493 z"
       fill="#36485C"
       id="path8"
       style="fill:#ffffff" />
    <path
       d="m 559.929,87.5295 c -2.387,0 -4.532,-0.2293 -6.413,-0.6882 -1.882,-0.4587 -3.546,-1.0434 -4.971,-1.7316 -1.422,-0.688 -2.639,-1.4447 -3.636,-2.2476 -0.999,-0.8028 -1.815,-1.5595 -2.432,-2.2474 v 24.6083 c 0,0.849 -0.309,1.583 -0.93,2.19 -0.62,0.608 -1.354,0.929 -2.191,0.929 h -8.792 c -0.848,0 -1.585,-0.309 -2.191,-0.929 -0.607,-0.619 -0.93,-1.353 -0.93,-2.19 V 29.4026 c 0,-0.8485 0.309,-1.5825 0.93,-2.19 0.62,-0.6195 1.354,-0.9289 2.191,-0.9289 h 8.792 c 0.848,0 1.582,0.3094 2.191,0.9289 0.607,0.6192 0.93,1.3529 0.93,2.19 v 2.6604 c 0.617,-0.6879 1.422,-1.4449 2.432,-2.2476 1.008,-0.8024 2.214,-1.5594 3.636,-2.2476 1.425,-0.6878 3.089,-1.2727 4.971,-1.7315 1.891,-0.4585 4.026,-0.6879 6.413,-0.6879 3.858,0 7.344,0.7454 10.465,2.2475 3.121,1.502 5.784,3.5089 7.973,6.0089 2.195,2.4996 3.937,5.3894 5.202,8.6691 1.271,3.2796 1.983,6.6852 2.132,10.2285 0.081,1.1582 0.114,2.4999 0.114,4.048 0,1.548 -0.033,2.8895 -0.114,4.048 -0.149,3.543 -0.872,6.9488 -2.132,10.2285 -1.276,3.2793 -3.007,6.1578 -5.202,8.6691 -2.189,2.4999 -4.852,4.5063 -7.973,6.0086 -3.121,1.5023 -6.607,2.2476 -10.465,2.2476 z M 570.682,59.561 c 0.23,-2.1559 0.23,-4.3114 0,-6.4673 -0.461,-5.0112 -2.008,-8.6119 -4.625,-10.8019 -2.617,-2.1905 -5.816,-3.291 -9.593,-3.291 -3.774,0 -6.955,1.1122 -9.536,3.3481 -2.582,2.236 -4.061,5.4355 -4.451,9.5867 -0.149,1.1581 -0.231,2.6144 -0.231,4.3918 0,1.7773 0.082,3.2336 0.231,4.392 0.39,4.002 1.869,7.1669 4.451,9.4719 2.581,2.3161 5.762,3.4629 9.536,3.4629 3.777,0 6.976,-1.1008 9.593,-3.2913 2.617,-2.1899 4.164,-5.8023 4.625,-10.8019 z"
       fill="#36485C"
       id="path9"
       style="fill:#ffffff" />
    <path
       d="M 595.996,26.0187 V 7.45367 c 0,-0.84858 0.309,-1.58248 0.929,-2.19022 0.618,-0.61922 1.355,-0.92886 2.192,-0.92886 h 8.789 c 0.848,0 1.584,0.30964 2.191,0.92886 0.61,0.61922 0.932,1.35309 0.932,2.19022 V 26.2826 h 14.914 c 0.851,0 1.585,0.3097 2.195,0.9289 0.617,0.6192 0.929,1.3529 0.929,2.19 v 7.6257 c 0,0.8487 -0.312,1.5827 -0.929,2.1904 -0.621,0.6076 -1.358,0.9287 -2.195,0.9287 h -14.914 v 24.4936 c 0,2.3854 0.629,4.3 1.902,5.7219 1.276,1.4222 3.638,2.1331 7.117,2.1331 h 7.057 c 0.848,0 1.583,0.3095 2.189,0.9289 0.621,0.6191 0.932,1.3531 0.932,2.1902 v 7.6257 c 0,0.8485 -0.311,1.5822 -0.932,2.1899 -0.62,0.6078 -1.351,0.9289 -2.189,0.9289 h -8.561 c -7.241,0 -12.817,-1.7543 -16.71,-5.2519 -3.887,-3.5089 -5.838,-8.8754 -5.838,-16.1226 z"
       fill="#36485C"
       id="path10"
       style="fill:#ffffff" />
    <path
       d="m 366.339,69.2047 c 0,-0.8485 -0.277,-1.548 -0.816,-2.0871 -0.536,-0.539 -1.493,-1.0434 -2.845,-1.502 -1.354,-0.4586 -3.156,-0.9289 -5.393,-1.3878 -2.249,-0.4586 -5.105,-1.0777 -8.583,-1.8574 -3.408,-0.7684 -6.231,-1.743 -8.469,-2.9012 -2.249,-1.1582 -4.039,-2.5113 -5.394,-4.0594 -1.352,-1.548 -2.305,-3.3026 -2.845,-5.2749 -0.539,-1.9723 -0.815,-4.1165 -0.815,-6.4329 0,-2.3166 0.539,-4.5983 1.628,-6.8343 1.081,-2.2362 2.65,-4.2315 4.695,-5.9745 2.054,-1.743 4.543,-3.1535 7.483,-4.2314 2.937,-1.0779 6.299,-1.6284 10.097,-1.6284 3.798,0 7.171,0.4243 10.157,1.2729 2.969,0.8486 5.505,1.9724 7.593,3.3599 2.089,1.3875 3.717,2.993 4.88,4.8161 1.156,1.8117 1.812,3.6465 1.969,5.5042 0.081,0.8488 -0.214,1.5825 -0.869,2.2016 -0.653,0.6194 -1.412,0.9289 -2.263,0.9289 h -8.926 c -1.157,0 -2.032,-0.2179 -2.617,-0.6422 -0.572,-0.4242 -1.214,-0.9058 -1.916,-1.4446 -0.699,-0.539 -1.631,-1.0207 -2.787,-1.4449 -1.16,-0.4245 -2.902,-0.6422 -5.221,-0.6422 -2.316,0 -4.373,0.3441 -6.153,1.0434 -1.777,0.6996 -2.66,1.9382 -2.66,3.7155 0,0.8485 0.206,1.5595 0.642,2.1442 0.425,0.5848 1.238,1.1008 2.433,1.5595 1.195,0.4588 2.855,0.9518 4.993,1.4448 2.121,0.5047 4.887,1.1008 8.295,1.8004 6.884,1.4679 11.739,3.7727 14.562,6.9031 2.82,3.1308 4.235,7.0179 4.235,11.6507 0,2.3164 -0.586,4.5754 -1.748,6.777 -1.157,2.2016 -2.844,4.1741 -5.047,5.9171 -2.203,1.7429 -4.912,3.1304 -8.125,4.1741 -3.213,1.0434 -6.824,1.5594 -10.842,1.5594 -4.015,0 -7.713,-0.4819 -10.845,-1.4449 -3.131,-0.9632 -5.781,-2.2246 -7.94,-3.7726 -2.168,-1.5481 -3.834,-3.2797 -4.99,-5.2176 -1.16,-1.9265 -1.78,-3.83 -1.859,-5.6761 -0.081,-0.8485 0.203,-1.5827 0.87,-2.2019 0.655,-0.6191 1.414,-0.9289 2.262,-0.9289 h 8.927 c 1.159,0 2.031,0.2754 2.606,0.8144 0.582,0.539 1.238,1.1582 1.972,1.8575 0.734,0.6996 1.756,1.3187 3.075,1.858 1.308,0.5388 3.283,0.8141 5.922,0.8141 1.157,0 2.352,-0.0804 3.59,-0.2296 1.241,-0.1489 2.376,-0.4012 3.421,-0.7567 1.044,-0.3554 1.916,-0.8141 2.604,-1.3877 0.688,-0.5732 1.046,-1.2955 1.046,-2.1442 z"
       fill="#36485C"
       id="path11"
       style="fill:#ffffff" />
    <path
       d="m 674.582,20.3049 c 0,10.5658 -7.027,17.5975 -17.609,17.5975 -10.582,0 -17.61,-7.0317 -17.61,-17.5975 0,-10.56585 7.068,-17.59759 17.61,-17.59759 10.547,0 17.609,7.03174 17.609,17.59759 z m -32.006,0 c 0,8.6347 5.763,14.4641 14.397,14.4641 8.639,0 14.467,-5.8294 14.467,-14.4641 0,-8.6349 -5.754,-14.46431 -14.467,-14.46431 -8.713,0 -14.397,5.82941 -14.397,14.46431 z m 15.405,-8.8899 c 3.925,0 6.133,2.0038 6.133,5.2829 0,2.4046 -1.571,3.8984 -3.478,4.5178 -0.407,0.1457 -0.407,0.255 -0.036,0.4372 1.306,0.7651 2.021,1.7124 2.506,2.9876 l 1.756,3.8984 c 0.187,0.4007 0,0.6194 -0.412,0.6194 h -2.357 c -0.292,0 -0.485,-0.1456 -0.636,-0.4372 l -1.193,-2.8783 c -1.013,-2.186 -2.056,-3.279 -4.862,-3.279 h -1.607 v 6.0479 c 0,0.3279 -0.187,0.5466 -0.564,0.5466 h -2.199 c -0.342,0 -0.564,-0.1822 -0.564,-0.5466 V 11.9615 c 0,-0.3279 0.184,-0.5465 0.564,-0.5465 h 6.989 z m -4.221,8.2705 h 3.099 c 2.506,0 4.077,-0.9109 4.077,-2.7326 0,-1.7123 -1.27,-2.441 -2.955,-2.441 h -4.221 z"
       fill="#36485C"
       id="path12"
       style="fill:#ffffff" />
  </g>
</svg>
