<svg width="139" height="43" viewBox="0 0 139 43" fill="none" xmlns="http://www.w3.org/2000/svg">
<path d="M11.1035 14.8682L8.52539 7.33887L6.02051 14.8682H11.1035ZM5.58105 16.1865L3.95508 21.0791C3.85742 21.3818 3.98926 21.6016 4.35059 21.7383C4.71191 21.875 5.29297 21.9873 6.09375 22.0752V22.7051H0V22.0752C0.664062 21.958 1.19141 21.8359 1.58203 21.709C1.97266 21.582 2.2168 21.3721 2.31445 21.0791L7.76367 4.58496C7.98828 4.34082 8.2666 4.12109 8.59863 3.92578C8.93066 3.7207 9.22363 3.5498 9.47754 3.41309L15.6299 21.0791C15.6787 21.2158 15.7471 21.3379 15.835 21.4453C15.9229 21.5527 16.04 21.6455 16.1865 21.7236C16.333 21.8018 16.5186 21.8701 16.7432 21.9287C16.9678 21.9873 17.2363 22.0361 17.5488 22.0752V22.7051H11.3672V22.0752C12.1289 22.0264 12.6562 21.9287 12.9492 21.7822C13.2422 21.6357 13.335 21.4014 13.2275 21.0791L11.5576 16.1865H5.58105Z" fill="white"/>
<path d="M18.75 22.7051V22.0752C19.1699 22.0068 19.5215 21.9385 19.8047 21.8701C20.0879 21.792 20.3125 21.7188 20.4785 21.6504C20.6445 21.5723 20.7617 21.4941 20.8301 21.416C20.9082 21.3379 20.9473 21.2598 20.9473 21.1816V3.7207C20.9473 3.28125 20.918 2.93945 20.8594 2.69531C20.8008 2.45117 20.6934 2.27051 20.5371 2.15332C20.3809 2.02637 20.1709 1.94336 19.9072 1.9043C19.6436 1.85547 19.3066 1.80664 18.8965 1.75781V1.17188C19.5996 1.03516 20.2441 0.883789 20.8301 0.717773C21.416 0.551758 22.0117 0.3125 22.6172 0L23.1445 0.498047V21.1816C23.1445 21.3281 23.3105 21.4795 23.6426 21.6357C23.9746 21.792 24.541 21.9385 25.3418 22.0752V22.7051H18.75Z" fill="white"/>
<path d="M35.918 20.9912C35.4395 21.3428 34.9658 21.6553 34.4971 21.9287C34.0283 22.1924 33.5791 22.417 33.1494 22.6025C32.7295 22.7783 32.3389 22.9102 31.9775 22.998C31.6162 23.0957 31.3086 23.1445 31.0547 23.1445C30.7129 23.1445 30.3857 23.0811 30.0732 22.9541C29.7705 22.8271 29.502 22.6221 29.2676 22.3389C29.0332 22.0459 28.8477 21.665 28.7109 21.1963C28.5742 20.7275 28.5059 20.1514 28.5059 19.4678V10.4736H26.6162L26.3086 10.0635L27.4512 9.08203H28.5059V5.47852L30.249 3.95508L30.7031 4.32129V9.08203H35.4932L35.918 9.50684C35.8301 9.64355 35.7178 9.79004 35.5811 9.94629C35.4541 10.1025 35.3223 10.249 35.1855 10.3857C35.0488 10.5225 34.9121 10.6494 34.7754 10.7666C34.6484 10.874 34.5361 10.9473 34.4385 10.9863C34.2041 10.8691 33.8477 10.7568 33.3691 10.6494C32.8906 10.5322 32.2559 10.4736 31.4648 10.4736H30.7031V18.208C30.7031 18.7939 30.7275 19.2822 30.7764 19.6729C30.835 20.0635 30.9277 20.376 31.0547 20.6104C31.1816 20.835 31.3428 20.9961 31.5381 21.0938C31.7432 21.1914 31.9922 21.2402 32.2852 21.2402C32.627 21.2402 33.0566 21.1719 33.5742 21.0352C34.0918 20.8984 34.7314 20.6348 35.4932 20.2441L35.918 20.9912Z" fill="white"/>
<path d="M43.623 10.1807C43.1152 10.1807 42.6465 10.2783 42.2168 10.4736C41.7969 10.6689 41.4209 10.9473 41.0889 11.3086C40.7666 11.6602 40.4932 12.085 40.2686 12.583C40.0537 13.0713 39.9023 13.6133 39.8145 14.209H46.084C46.3086 14.209 46.4551 14.1748 46.5234 14.1064C46.6016 14.0283 46.6406 13.8867 46.6406 13.6816C46.6406 13.418 46.6016 13.0908 46.5234 12.7002C46.4551 12.2998 46.3086 11.9141 46.084 11.543C45.8691 11.1621 45.5615 10.8398 45.1611 10.5762C44.7705 10.3125 44.2578 10.1807 43.623 10.1807ZM49.043 14.5459C48.8672 14.7412 48.6328 14.9219 48.3398 15.0879C48.0469 15.2539 47.7441 15.4004 47.4316 15.5273H39.7266C39.7363 16.2891 39.8389 17.0166 40.0342 17.71C40.2393 18.3936 40.5273 18.999 40.8984 19.5264C41.2793 20.0439 41.7334 20.459 42.2607 20.7715C42.7979 21.084 43.3984 21.2402 44.0625 21.2402C44.3652 21.2402 44.6582 21.2207 44.9414 21.1816C45.2344 21.1426 45.5469 21.0547 45.8789 20.918C46.2109 20.7812 46.5771 20.5811 46.9775 20.3174C47.3877 20.0537 47.8662 19.6973 48.4131 19.248C48.54 19.3164 48.6475 19.4141 48.7354 19.541C48.833 19.668 48.9062 19.7705 48.9551 19.8486C48.3008 20.5615 47.7246 21.1377 47.2266 21.5771C46.7383 22.0068 46.2744 22.3389 45.835 22.5732C45.4053 22.8076 44.9756 22.959 44.5459 23.0273C44.126 23.1055 43.667 23.1445 43.1689 23.1445C42.417 23.1445 41.6992 22.9834 41.0156 22.6611C40.3418 22.3389 39.7461 21.8848 39.2285 21.2988C38.7109 20.7031 38.2959 19.9902 37.9834 19.1602C37.6807 18.3203 37.5293 17.3828 37.5293 16.3477C37.5293 15.6934 37.6025 15.0488 37.749 14.4141C37.8955 13.7793 38.1055 13.1787 38.3789 12.6123C38.6621 12.0459 39.0039 11.5234 39.4043 11.0449C39.8047 10.5664 40.2588 10.1514 40.7666 9.7998C40.9814 9.65332 41.2207 9.51172 41.4844 9.375C41.7578 9.22852 42.041 9.10156 42.334 8.99414C42.627 8.88672 42.915 8.80371 43.1982 8.74512C43.4912 8.67676 43.7695 8.64258 44.0332 8.64258C44.668 8.64258 45.2344 8.73047 45.7324 8.90625C46.2305 9.08203 46.665 9.32129 47.0361 9.62402C47.4072 9.91699 47.7197 10.2637 47.9736 10.6641C48.2275 11.0547 48.4326 11.4697 48.5889 11.9092C48.7549 12.3486 48.8721 12.7979 48.9404 13.2568C49.0088 13.7061 49.043 14.1357 49.043 14.5459Z" fill="white"/>
<path d="M61.4941 9.18457C61.582 9.24316 61.6211 9.41406 61.6113 9.69727C61.6113 9.98047 61.5723 10.3076 61.4941 10.6787C61.4258 11.0498 61.333 11.4307 61.2158 11.8213C61.0986 12.2119 60.9814 12.5391 60.8643 12.8027H60.2344C60.1758 12.4121 60.0928 12.0801 59.9854 11.8066C59.8779 11.5332 59.751 11.3184 59.6045 11.1621C59.4678 10.9961 59.3115 10.8789 59.1357 10.8105C58.9697 10.7324 58.7939 10.6934 58.6084 10.6934C58.3936 10.6934 58.1396 10.7861 57.8467 10.9717C57.5635 11.1475 57.2705 11.4307 56.9678 11.8213C56.665 12.2021 56.3623 12.6953 56.0596 13.3008C55.7666 13.8965 55.5029 14.6094 55.2686 15.4395V21.1816C55.2686 21.3281 55.4492 21.4795 55.8105 21.6357C56.1816 21.792 56.8262 21.9385 57.7441 22.0752V22.7051H51.0205V22.0752C51.665 21.9287 52.168 21.7871 52.5293 21.6504C52.8906 21.5039 53.0713 21.3477 53.0713 21.1816V12.6562C53.0713 12.334 53.0615 12.0654 53.042 11.8506C53.0225 11.626 52.998 11.4453 52.9688 11.3086C52.9395 11.1719 52.9004 11.0645 52.8516 10.9863C52.8125 10.9082 52.7734 10.8447 52.7344 10.7959C52.666 10.7275 52.5879 10.6738 52.5 10.6348C52.4219 10.5859 52.3145 10.5469 52.1777 10.5176C52.0508 10.4883 51.8945 10.4688 51.709 10.459C51.5234 10.4395 51.2939 10.4199 51.0205 10.4004V9.81445C51.6553 9.64844 52.2754 9.48242 52.8809 9.31641C53.4961 9.14062 54.0479 8.91602 54.5361 8.64258L55.0488 9.15527L55.2393 12.4805C55.5029 11.9434 55.7861 11.4404 56.0889 10.9717C56.4014 10.5029 56.7334 10.0977 57.085 9.75586C57.4365 9.4043 57.8027 9.13086 58.1836 8.93555C58.5742 8.74023 58.9795 8.64258 59.3994 8.64258C59.7119 8.64258 60.0488 8.68164 60.4102 8.75977C60.7715 8.83789 61.1328 8.97949 61.4941 9.18457Z" fill="white"/>
<path d="M71.9238 22.7051V22.0752C72.627 21.8896 73.1445 21.7285 73.4766 21.5918C73.8086 21.4551 73.9746 21.3184 73.9746 21.1816V13.4326C73.9746 12.8369 73.9404 12.3535 73.8721 11.9824C73.8037 11.6113 73.6963 11.3184 73.5498 11.1035C73.4033 10.8887 73.208 10.7422 72.9639 10.6641C72.7295 10.5859 72.4414 10.5469 72.0996 10.5469C71.7969 10.5469 71.46 10.6201 71.0889 10.7666C70.7178 10.9131 70.3174 11.1475 69.8877 11.4697C69.4678 11.792 69.0234 12.2168 68.5547 12.7441C68.0957 13.2617 67.6318 13.9014 67.1631 14.6631V21.1816C67.1631 21.3281 67.3438 21.4795 67.7051 21.6357C68.0762 21.792 68.5791 21.9385 69.2139 22.0752V22.7051H62.915V22.0752C63.5596 21.9092 64.0625 21.7627 64.4238 21.6357C64.7852 21.499 64.9658 21.3477 64.9658 21.1816V12.29C64.9658 11.9092 64.9512 11.6064 64.9219 11.3818C64.8926 11.1572 64.8096 10.9814 64.6729 10.8545C64.5459 10.7275 64.3457 10.6348 64.0723 10.5762C63.7988 10.5176 63.4131 10.459 62.915 10.4004V9.81445C63.5791 9.70703 64.1943 9.55566 64.7607 9.36035C65.3271 9.15527 65.8838 8.91602 66.4307 8.64258L66.9434 9.15527L67.1045 12.8027C67.5342 12.1484 68.0078 11.5674 68.5254 11.0596C69.043 10.542 69.5654 10.1074 70.0928 9.75586C70.6201 9.39453 71.1279 9.12109 71.6162 8.93555C72.1143 8.74023 72.5537 8.64258 72.9346 8.64258C73.3545 8.64258 73.7598 8.70605 74.1504 8.83301C74.541 8.95996 74.8828 9.15527 75.1758 9.41895C75.4785 9.68262 75.7178 10.0195 75.8936 10.4297C76.0791 10.8301 76.1719 11.3037 76.1719 11.8506V21.1816C76.1719 21.3184 76.3184 21.4551 76.6113 21.5918C76.9141 21.7188 77.4512 21.8799 78.2227 22.0752V22.7051H71.9238Z" fill="white"/>
<path d="M83.8184 21.2402C84.4043 21.2402 85.0244 21.0938 85.6787 20.8008C86.3428 20.498 87.0459 20.0244 87.7881 19.3799V15.5859C86.9678 15.7227 86.2891 15.8545 85.752 15.9814C85.2246 16.1084 84.79 16.2402 84.4482 16.377C84.1064 16.5039 83.833 16.6406 83.6279 16.7871C83.4229 16.9336 83.2422 17.0898 83.0859 17.2559C82.832 17.5195 82.627 17.8223 82.4707 18.1641C82.3145 18.4961 82.2363 18.8916 82.2363 19.3506C82.2363 19.7412 82.2949 20.0586 82.4121 20.3027C82.5293 20.5469 82.6709 20.7422 82.8369 20.8887C83.0029 21.0254 83.1738 21.1182 83.3496 21.167C83.5352 21.2158 83.6914 21.2402 83.8184 21.2402ZM92.2266 21.5039C91.3965 22.0801 90.708 22.4951 90.1611 22.749C89.624 23.0127 89.2188 23.1445 88.9453 23.1445C88.623 23.1445 88.3545 22.9199 88.1396 22.4707C87.9248 22.0215 87.8076 21.4014 87.7881 20.6104C87.3486 21.0498 86.9092 21.4307 86.4697 21.7529C86.0303 22.0752 85.6006 22.3389 85.1807 22.5439C84.7607 22.749 84.3604 22.9004 83.9795 22.998C83.6084 23.0957 83.2666 23.1445 82.9541 23.1445C82.6025 23.1445 82.2412 23.0859 81.8701 22.9688C81.499 22.8516 81.1621 22.666 80.8594 22.4121C80.5664 22.1582 80.3223 21.8311 80.127 21.4307C79.9316 21.0303 79.834 20.5469 79.834 19.9805C79.834 19.2383 79.9609 18.6182 80.2148 18.1201C80.4785 17.6221 80.791 17.1924 81.1523 16.8311C81.3867 16.5967 81.6504 16.377 81.9434 16.1719C82.2461 15.957 82.6416 15.752 83.1299 15.5566C83.6279 15.3613 84.248 15.1758 84.9902 15C85.7324 14.8242 86.665 14.6533 87.7881 14.4873V12.4219C87.7881 12.0898 87.749 11.7822 87.6709 11.499C87.5928 11.2061 87.4609 10.957 87.2754 10.752C87.0898 10.5371 86.8359 10.376 86.5137 10.2686C86.2012 10.1514 85.8057 10.0977 85.3271 10.1074C85.0146 10.1172 84.707 10.1709 84.4043 10.2686C84.1016 10.3662 83.8379 10.5029 83.6133 10.6787C83.3887 10.8545 83.2129 11.0645 83.0859 11.3086C82.959 11.543 82.9102 11.8066 82.9395 12.0996C82.9492 12.1875 82.8467 12.29 82.6318 12.4072C82.4268 12.5146 82.1777 12.6123 81.8848 12.7002C81.6016 12.7881 81.3184 12.8564 81.0352 12.9053C80.7617 12.9541 80.5664 12.9639 80.4492 12.9346L80.2441 12.3633C80.4688 11.875 80.8105 11.4062 81.2695 10.957C81.7285 10.5078 82.251 10.1123 82.8369 9.77051C83.4326 9.42871 84.0576 9.15527 84.7119 8.9502C85.376 8.74512 86.0156 8.64258 86.6309 8.64258C87.7051 8.64258 88.5303 8.92578 89.1064 9.49219C89.6924 10.0488 89.9854 10.8301 89.9854 11.8359V20.0977C89.9854 20.5078 90.0391 20.8008 90.1465 20.9766C90.2539 21.1523 90.3955 21.2402 90.5713 21.2402C90.708 21.2402 90.8838 21.2158 91.0986 21.167C91.3135 21.1182 91.6162 21.0107 92.0068 20.8447L92.2266 21.5039Z" fill="white"/>
<path d="M102.334 20.9912C101.855 21.3428 101.382 21.6553 100.913 21.9287C100.444 22.1924 99.9951 22.417 99.5654 22.6025C99.1455 22.7783 98.7549 22.9102 98.3936 22.998C98.0322 23.0957 97.7246 23.1445 97.4707 23.1445C97.1289 23.1445 96.8018 23.0811 96.4893 22.9541C96.1865 22.8271 95.918 22.6221 95.6836 22.3389C95.4492 22.0459 95.2637 21.665 95.127 21.1963C94.9902 20.7275 94.9219 20.1514 94.9219 19.4678V10.4736H93.0322L92.7246 10.0635L93.8672 9.08203H94.9219V5.47852L96.665 3.95508L97.1191 4.32129V9.08203H101.909L102.334 9.50684C102.246 9.64355 102.134 9.79004 101.997 9.94629C101.87 10.1025 101.738 10.249 101.602 10.3857C101.465 10.5225 101.328 10.6494 101.191 10.7666C101.064 10.874 100.952 10.9473 100.854 10.9863C100.62 10.8691 100.264 10.7568 99.7852 10.6494C99.3066 10.5322 98.6719 10.4736 97.8809 10.4736H97.1191V18.208C97.1191 18.7939 97.1436 19.2822 97.1924 19.6729C97.251 20.0635 97.3438 20.376 97.4707 20.6104C97.5977 20.835 97.7588 20.9961 97.9541 21.0938C98.1592 21.1914 98.4082 21.2402 98.7012 21.2402C99.043 21.2402 99.4727 21.1719 99.9902 21.0352C100.508 20.8984 101.147 20.6348 101.909 20.2441L102.334 20.9912Z" fill="white"/>
<path d="M103.799 22.7051V22.0752C104.463 21.9385 104.971 21.792 105.322 21.6357C105.674 21.4697 105.85 21.3184 105.85 21.1816V12.8906C105.85 12.3926 105.84 11.9922 105.82 11.6895C105.801 11.377 105.728 11.1377 105.601 10.9717C105.474 10.7959 105.269 10.6689 104.985 10.5908C104.712 10.5127 104.316 10.4492 103.799 10.4004V9.81445C104.102 9.75586 104.419 9.6875 104.751 9.60938C105.093 9.52148 105.43 9.42871 105.762 9.33105C106.094 9.22363 106.411 9.11133 106.714 8.99414C107.017 8.87695 107.295 8.75977 107.549 8.64258H108.047V21.1816C108.047 21.2988 108.208 21.4453 108.53 21.6211C108.862 21.7871 109.385 21.9385 110.098 22.0752V22.7051H103.799ZM108.486 4.2334C108.486 4.50684 108.442 4.76562 108.354 5.00977C108.267 5.25391 108.145 5.46875 107.988 5.6543C107.842 5.83008 107.666 5.97168 107.461 6.0791C107.256 6.18652 107.031 6.24023 106.787 6.24023C106.348 6.24023 106.03 6.11816 105.835 5.87402C105.649 5.62988 105.557 5.2832 105.557 4.83398C105.557 4.56055 105.601 4.30176 105.688 4.05762C105.776 3.81348 105.898 3.60352 106.055 3.42773C106.211 3.24219 106.387 3.10059 106.582 3.00293C106.787 2.89551 107.007 2.8418 107.241 2.8418C108.071 2.8418 108.486 3.30566 108.486 4.2334Z" fill="white"/>
<path d="M125.405 9.71191C125.112 9.78027 124.873 9.84375 124.688 9.90234C124.502 9.96094 124.351 10.0293 124.233 10.1074C124.116 10.1758 124.023 10.2588 123.955 10.3564C123.896 10.4443 123.843 10.5615 123.794 10.708L119.648 21.8408C119.561 22.0557 119.434 22.2412 119.268 22.3975C119.102 22.5439 118.921 22.666 118.726 22.7637C118.53 22.8711 118.335 22.9541 118.14 23.0127C117.954 23.0713 117.798 23.1152 117.671 23.1445L112.837 10.708C112.749 10.4346 112.578 10.2295 112.324 10.0928C112.07 9.94629 111.699 9.81934 111.211 9.71191V9.08203H116.865V9.71191C116.484 9.76074 116.172 9.80957 115.928 9.8584C115.693 9.90723 115.508 9.9707 115.371 10.0488C115.244 10.1172 115.171 10.2051 115.151 10.3125C115.132 10.4199 115.151 10.5518 115.21 10.708L118.813 20.0977L122.197 10.708C122.246 10.5615 122.261 10.4395 122.241 10.3418C122.231 10.2344 122.168 10.1465 122.051 10.0781C121.934 10 121.763 9.93652 121.538 9.8877C121.323 9.8291 121.035 9.77051 120.674 9.71191V9.08203H125.405V9.71191Z" fill="white"/>
<path d="M132.979 10.1807C132.471 10.1807 132.002 10.2783 131.572 10.4736C131.152 10.6689 130.776 10.9473 130.444 11.3086C130.122 11.6602 129.849 12.085 129.624 12.583C129.409 13.0713 129.258 13.6133 129.17 14.209H135.439C135.664 14.209 135.811 14.1748 135.879 14.1064C135.957 14.0283 135.996 13.8867 135.996 13.6816C135.996 13.418 135.957 13.0908 135.879 12.7002C135.811 12.2998 135.664 11.9141 135.439 11.543C135.225 11.1621 134.917 10.8398 134.517 10.5762C134.126 10.3125 133.613 10.1807 132.979 10.1807ZM138.398 14.5459C138.223 14.7412 137.988 14.9219 137.695 15.0879C137.402 15.2539 137.1 15.4004 136.787 15.5273H129.082C129.092 16.2891 129.194 17.0166 129.39 17.71C129.595 18.3936 129.883 18.999 130.254 19.5264C130.635 20.0439 131.089 20.459 131.616 20.7715C132.153 21.084 132.754 21.2402 133.418 21.2402C133.721 21.2402 134.014 21.2207 134.297 21.1816C134.59 21.1426 134.902 21.0547 135.234 20.918C135.566 20.7812 135.933 20.5811 136.333 20.3174C136.743 20.0537 137.222 19.6973 137.769 19.248C137.896 19.3164 138.003 19.4141 138.091 19.541C138.188 19.668 138.262 19.7705 138.311 19.8486C137.656 20.5615 137.08 21.1377 136.582 21.5771C136.094 22.0068 135.63 22.3389 135.19 22.5732C134.761 22.8076 134.331 22.959 133.901 23.0273C133.481 23.1055 133.022 23.1445 132.524 23.1445C131.772 23.1445 131.055 22.9834 130.371 22.6611C129.697 22.3389 129.102 21.8848 128.584 21.2988C128.066 20.7031 127.651 19.9902 127.339 19.1602C127.036 18.3203 126.885 17.3828 126.885 16.3477C126.885 15.6934 126.958 15.0488 127.104 14.4141C127.251 13.7793 127.461 13.1787 127.734 12.6123C128.018 12.0459 128.359 11.5234 128.76 11.0449C129.16 10.5664 129.614 10.1514 130.122 9.7998C130.337 9.65332 130.576 9.51172 130.84 9.375C131.113 9.22852 131.396 9.10156 131.689 8.99414C131.982 8.88672 132.271 8.80371 132.554 8.74512C132.847 8.67676 133.125 8.64258 133.389 8.64258C134.023 8.64258 134.59 8.73047 135.088 8.90625C135.586 9.08203 136.021 9.32129 136.392 9.62402C136.763 9.91699 137.075 10.2637 137.329 10.6641C137.583 11.0547 137.788 11.4697 137.944 11.9092C138.11 12.3486 138.228 12.7979 138.296 13.2568C138.364 13.7061 138.398 14.1357 138.398 14.5459Z" fill="white"/>
<path d="M1.60742 31.4011H3.62342L7.51142 39.2131H7.36742L11.2554 31.4011H13.2174V42.7051H11.7954V32.8591H12.0474L7.90742 41.2831H6.97142L2.84942 32.9131H3.01142V42.7051H1.60742V31.4011Z" fill="white"/>
<path d="M25.2897 42.7051V31.4011H32.2557V32.6071H26.6937V36.4051H31.9317V37.6111H26.6937V41.4811H32.2557V42.7051H25.2897Z" fill="white"/>
<path d="M43.8751 31.4011H47.1871C48.3271 31.4011 49.3171 31.6351 50.1571 32.1031C50.9971 32.5651 51.6481 33.2191 52.1101 34.0651C52.5721 34.9111 52.8031 35.9071 52.8031 37.0531C52.8031 38.1871 52.5721 39.1771 52.1101 40.0231C51.6481 40.8691 50.9971 41.5291 50.1571 42.0031C49.3171 42.4711 48.3271 42.7051 47.1871 42.7051H43.8751V31.4011ZM45.2791 32.6431V41.4811H47.1871C48.0391 41.4811 48.7711 41.2891 49.3831 40.9051C50.0011 40.5211 50.4751 39.9961 50.8051 39.3301C51.1411 38.6581 51.3091 37.8991 51.3091 37.0531C51.3091 36.2011 51.1411 35.4451 50.8051 34.7851C50.4751 34.1191 50.0011 33.5971 49.3831 33.2191C48.7711 32.8351 48.0391 32.6431 47.1871 32.6431H45.2791Z" fill="white"/>
<path d="M64.2179 42.7051V31.4011H65.6219V42.7051H64.2179Z" fill="white"/>
<path d="M81.6468 42.9211C80.6508 42.9211 79.7928 42.6721 79.0728 42.1741C78.3528 41.6701 77.7978 40.9741 77.4078 40.0861C77.0178 39.1921 76.8228 38.1571 76.8228 36.9811C76.8228 35.7271 77.0328 34.6711 77.4528 33.8131C77.8788 32.9551 78.4548 32.3071 79.1808 31.8691C79.9128 31.4251 80.7348 31.2031 81.6468 31.2031C82.8528 31.2031 83.8218 31.5061 84.5538 32.1121C85.2918 32.7121 85.7988 33.4951 86.0748 34.4611L84.5628 34.7671C84.3288 34.0651 83.9538 33.5071 83.4378 33.0931C82.9278 32.6731 82.3308 32.4631 81.6468 32.4631C81.0528 32.4631 80.5038 32.6341 79.9998 32.9761C79.5018 33.3121 79.0998 33.8161 78.7938 34.4881C78.4878 35.1601 78.3348 35.9911 78.3348 36.9811C78.3348 37.8811 78.4548 38.6821 78.6948 39.3841C78.9408 40.0861 79.3068 40.6381 79.7928 41.0401C80.2848 41.4421 80.9028 41.6431 81.6468 41.6431C82.5408 41.6431 83.2488 41.4031 83.7708 40.9231C84.2988 40.4431 84.5628 39.8131 84.5628 39.0331H86.0928C86.0928 39.8431 85.9068 40.5391 85.5348 41.1211C85.1628 41.6971 84.6408 42.1411 83.9688 42.4531C83.3028 42.7651 82.5288 42.9211 81.6468 42.9211Z" fill="white"/>
<path d="M97.2219 42.7051V31.4011H98.6259V42.7051H97.2219Z" fill="white"/>
<path d="M110.709 31.4011H112.383L118.125 40.7071H117.999V31.4011H119.403V42.7051H117.837L111.897 33.0931H112.113V42.7051H110.709V31.4011Z" fill="white"/>
<path d="M131.473 42.7051V31.4011H138.439V32.6071H132.877V36.4051H138.115V37.6111H132.877V41.4811H138.439V42.7051H131.473Z" fill="white"/>
</svg>
