<?xml version="1.0" encoding="UTF-8" standalone="no"?>
<!-- Created with Inkscape (http://www.inkscape.org/) -->

<svg
   width="172.78561mm"
   height="83.438194mm"
   viewBox="0 0 172.78561 83.438194"
   version="1.1"
   id="svg1"
   xml:space="preserve"
   xmlns="http://www.w3.org/2000/svg"
   xmlns:svg="http://www.w3.org/2000/svg"><defs
     id="defs1" /><g
     id="layer1"
     transform="translate(-14.724437,-181.92329)"><path
       style="fill:#ffffff;stroke:none"
       d="m 67.000554,181.9233 c -4.9894,10.42634 -4.782116,21.26732 -4.782123,32.4315 -4e-6,5.77614 1.172271,13.03523 -1.847498,18.33468 -3.700534,6.49413 -13.831658,7.63008 -17.035997,0.011 -1.668918,-3.96824 0.712932,-7.86006 2.624276,-11.33347 -4.3866,2.84372 -8.253568,8.01813 -13.388431,9.61301 -8.826956,2.74164 -10.097263,-7.94768 -8.324723,-13.11912 3.808358,-11.111 12.930432,-20.37511 23.626003,-26.2958 v -0.87653 c -14.460074,4.59186 -43.2499928,27.3217 -29.544262,43.49717 4.284112,5.05609 10.059867,4.72134 16.154317,6.13432 10.187427,2.36192 22.284504,10.4883 30.465458,-0.65543 7.772267,-10.58702 0.125591,-27.75278 -0.624217,-39.33426 -0.414751,-6.40619 2.282038,-12.14352 2.677197,-18.40707 m -18.172068,7.88875 0.956424,0.87652 -0.956424,-0.87652 m 30.605588,18.40706 v 29.80192 h 4.782123 v -29.80192 h -4.782123 m 17.215648,0 v 29.80192 h 13.389938 v -4.38264 h -8.60782 v -25.41928 h -4.782118 m 29.649158,0 -5.73855,29.80192 h 4.78212 l 1.14715,-4.49629 5.54783,0.11365 1.01245,4.35775 4.72609,0.0249 -5.73854,-29.80192 h -5.73855 m 18.17207,0 6.69497,29.80192 h 4.78212 l 6.69497,-29.80192 h -5.73854 l -2.96189,13.43873 c 0,0 -2.71681,-11.29857 -3.32705,-13.33987 -0.1057,-0.35356 -6.1048,-0.0352 -6.14457,-0.0989 m 24.86704,29.80192 5.51396,-0.066 0.22458,-4.31667 h 6.69497 v 4.38264 h 5.73854 l -6.45734,-29.95252 c -1.78007,0.12166 -3.55077,-0.15347 -5.33385,-0.0887 l -6.38086,30.04126 m -40.16984,-19.2836 1.91285,9.6418 h -3.82571 l 1.91285,-9.6418 m 49.73408,0 1.91285,9.6418 h -4.78212 l 2.86927,-9.6418 m -147.289388,25.4193 c 1.902008,9.89484 7.957296,30.28335 21.041342,16.65402 -11.601877,1.3308 -15.538296,-8.83658 -21.041342,-16.65402 z"
       id="path2-0" /></g></svg>
