<svg width="28" height="17" viewBox="0 0 28 17" fill="none" xmlns="http://www.w3.org/2000/svg">
<path fill-rule="evenodd" clip-rule="evenodd" d="M26.7048 1.99463C26.7048 2.54691 26.2571 2.99463 25.7048 2.99463H9.29051C8.73823 2.99463 8.29051 2.54691 8.29051 1.99463C8.29051 1.44234 8.73823 0.994629 9.29051 0.994629H25.7048C26.2571 0.994629 26.7048 1.44234 26.7048 1.99463ZM26.7048 9.0162C26.7048 9.56849 26.2571 10.0162 25.7048 10.0162H4.08252C3.53023 10.0162 3.08252 9.56849 3.08252 9.0162C3.08252 8.46392 3.53023 8.0162 4.08252 8.0162H25.7048C26.2571 8.0162 26.7048 8.46392 26.7048 9.0162ZM26.7048 15.9448C26.7048 16.497 26.2571 16.9448 25.7048 16.9448H9.29051C8.73823 16.9448 8.29051 16.497 8.29051 15.9448C8.29051 15.3925 8.73823 14.9448 9.29051 14.9448H25.7048C26.2571 14.9448 26.7048 15.3925 26.7048 15.9448Z" fill="white"/>
</svg>
