<?xml version="1.0" encoding="UTF-8" standalone="no"?>
<!-- Created with Inkscape (http://www.inkscape.org/) -->

<svg
   width="181.89246mm"
   height="23.550613mm"
   viewBox="0 0 181.89246 23.550613"
   version="1.1"
   id="svg1"
   xml:space="preserve"
   xmlns="http://www.w3.org/2000/svg"
   xmlns:svg="http://www.w3.org/2000/svg"><defs
     id="defs1" /><g
     id="layer1"
     transform="translate(-17.028254,-194.16416)"><path
       style="fill:#ffffff"
       d="m 27.398805,217.65715 c -1.711359,-0.21459 -3.549072,-0.89011 -5.007191,-1.84056 -0.887701,-0.57863 -2.286559,-1.86467 -2.916731,-2.68149 -0.399081,-0.51728 -1.339427,-2.03197 -1.339427,-2.15751 0,-0.0391 0.240178,0.0591 0.533728,0.21808 1.44168,0.78085 3.453107,0.91366 4.91212,0.32433 1.793554,-0.72444 2.899167,-1.77027 5.548429,-5.24838 2.163604,-2.84051 3.31876,-3.98703 4.734935,-4.69955 1.379162,-0.6939 3.370419,-0.81293 4.571349,-0.27326 1.273021,0.57206 1.927265,1.683 2.11527,3.59183 0.208004,2.11189 -0.172878,4.1729 -1.135536,6.14456 -1.680775,3.44245 -4.703692,5.77222 -8.408186,6.48023 -1.005322,0.19213 -2.681724,0.25797 -3.60876,0.14172 z m 40.917678,-4.05151 c -2.425767,-0.49565 -4.259089,-2.1299 -4.921306,-4.38692 -0.148358,-0.50565 -0.172305,-1.14822 -0.20532,-5.50942 l -0.03737,-4.93701 h 1.623019 1.623019 l 0.02882,4.6985 0.02882,4.69851 0.233504,0.47452 c 0.325588,0.66165 0.951173,1.2517 1.703072,1.60634 0.558215,0.26329 0.737688,0.30098 1.415698,0.29732 0.676711,-0.004 0.856498,-0.0436 1.399697,-0.31103 0.759909,-0.3741 1.50543,-1.1496 1.725188,-1.79455 0.132379,-0.38851 0.153224,-1.07682 0.153224,-5.05965 v -4.60996 h 1.627988 1.627988 l -0.03553,4.93701 c -0.03944,5.47988 -0.03514,5.43875 -0.699434,6.70289 -1.270902,2.41853 -4.392399,3.78573 -7.291072,3.19345 z m 75.366937,0.0413 c 0,-0.095 6.43539,-13.9151 7.03219,-15.10177 0.1988,-0.39529 0.25395,-0.44574 0.36496,-0.3339 0.21506,0.21667 7.28583,15.3897 7.20891,15.46948 -0.039,0.0404 -0.96408,0.0619 -2.05575,0.0477 l -1.98485,-0.0258 -0.40035,-0.90631 -0.40035,-0.90631 -2.66815,-0.0253 -2.66816,-0.0253 -0.39221,0.93161 -0.39222,0.93161 -1.82201,0.0259 c -1.303,0.0185 -1.82201,-0.005 -1.82201,-0.0816 z m 7.93026,-6.4243 c -0.40011,-1.01916 -0.75798,-1.82366 -0.79526,-1.78776 -0.0657,0.0632 -1.50633,3.50072 -1.50633,3.59426 0,0.0256 0.68154,0.0465 1.51453,0.0465 h 1.51453 z M 49.617849,206.21358 v -7.44129 h 3.05686 c 3.535718,0 4.067944,0.0685 5.338445,0.68722 1.852902,0.90233 2.782568,2.49134 2.779412,4.75064 -0.0027,1.93518 -0.727041,3.5785 -1.969481,4.46819 l -0.507677,0.36354 1.338494,2.184 c 0.736173,1.20121 1.359647,2.23913 1.3855,2.3065 0.03727,0.0971 -0.337751,0.12249 -1.811926,0.12249 h -1.858931 l -1.234075,-1.93187 -1.234074,-1.93188 -1.019453,-0.0271 -1.019453,-0.0271 v 1.95895 1.95895 h -1.62182 -1.621821 z m 6.068536,0.3702 c 0.711576,-0.13294 1.119732,-0.4589 1.47289,-1.17626 0.281067,-0.57093 0.302912,-0.68085 0.261463,-1.31563 -0.04803,-0.73561 -0.284764,-1.33407 -0.671731,-1.69816 -0.420451,-0.39559 -0.818471,-0.48617 -2.384948,-0.54279 l -1.502569,-0.0543 v 2.45178 2.45179 l 1.18245,-0.0152 c 0.650347,-0.008 1.389447,-0.0539 1.642445,-0.10117 z m 24.078241,-0.3702 v -7.44129 h 3.05686 c 2.421114,0 3.209791,0.0315 3.792197,0.15158 2.06427,0.42554 3.510718,1.70558 4.086931,3.61676 0.264128,0.87606 0.239731,2.64964 -0.04856,3.52985 -0.622394,1.90032 -1.796738,3.04723 -3.624579,3.53991 -0.334586,0.0902 -1.193481,0.16589 -2.278141,0.2008 l -1.741072,0.056 v 1.89382 1.89383 h -1.62182 -1.62182 z m 6.487281,0.26451 c 0.183647,-0.0775 0.5142,-0.33717 0.734561,-0.577 0.712363,-0.77529 0.855251,-1.79027 0.398725,-2.83226 -0.235323,-0.53712 -0.416296,-0.73651 -0.894783,-0.98587 -0.328797,-0.17135 -0.596136,-0.2045 -1.931874,-0.23955 l -1.55027,-0.0407 v 2.45763 2.45763 l 1.454869,-0.0495 c 0.968456,-0.0329 1.566503,-0.0966 1.788772,-0.19042 z m 4.046198,7.01193 c 0.03375,-0.093 1.659339,-3.59237 3.612408,-7.77642 2.466515,-5.284 3.592806,-7.60032 3.687809,-7.58431 0.112023,0.0189 7.327538,15.19871 7.346738,15.45589 0.003,0.0404 -0.92556,0.0618 -2.06348,0.0477 l -2.06897,-0.0257 -0.39369,-0.90631 -0.3937,-0.90631 h -2.653269 -2.653269 l -0.40038,0.90631 -0.40038,0.90631 -1.840595,0.0259 c -1.727182,0.0243 -1.836813,0.0155 -1.779222,-0.1431 z m 7.899453,-6.32243 c -0.398327,-0.99694 -0.748347,-1.81189 -0.777822,-1.81099 -0.04497,0.001 -0.473633,1.01172 -1.363763,3.21442 l -0.165358,0.40919 h 1.515587 1.515588 z m 15.118712,6.42591 c -0.0362,-0.0362 -0.0658,-3.38579 -0.0658,-7.44352 v -7.37769 h 1.66952 1.66952 v 3.24364 3.24364 h 3.52985 3.52984 v -3.24364 -3.24364 h 1.62182 1.62182 v 7.44129 7.44129 h -1.62182 -1.62182 v -2.62353 -2.62353 h -3.52831 -3.52831 l -0.0254,2.59968 -0.0254,2.59968 -1.57984,0.0261 c -0.86892,0.0143 -1.60947,-0.004 -1.64567,-0.0397 z m 16.91558,-7.37992 v -7.44129 h 5.48557 5.48557 v 1.52642 1.52641 h -3.86375 -3.86375 v 1.71723 1.71722 h 3.43681 3.43681 l -0.0262,1.55027 -0.0262,1.55027 -3.41059,0.0251 -3.4106,0.0251 v 1.0482 1.04821 h 4.00685 4.00685 v 1.57412 1.57412 h -5.62867 -5.62867 z m 30.71919,0 v -7.44129 h 1.62182 1.62182 v 5.86717 5.86717 h 3.76834 3.76835 v 1.57412 1.57412 h -5.39017 -5.39016 z m 14.50098,1.52642 v -5.91488 h -1.86032 -1.86033 v -1.52641 -1.52642 h 5.43787 5.43787 v 1.52642 1.52641 h -1.95573 -1.95572 v 5.91488 5.91487 h -1.62182 -1.62182 z m 9.92172,-1.52642 v -7.44129 h 1.62182 1.62182 v 3.24364 3.24364 h 3.52985 3.52984 v -3.24364 -3.24364 h 1.62182 1.62182 v 7.44129 7.44129 h -1.62182 -1.62182 v -2.62353 -2.62353 h -3.52984 -3.52985 v 2.62353 2.62353 h -1.62182 -1.62182 z m -165.129476,4.33288 c -1.672889,-0.44986 -2.764636,-1.79249 -3.112237,-3.82743 -0.147152,-0.86146 -0.146092,-0.88552 0.05675,-1.28791 1.30891,-2.59652 3.87949,-3.86356 5.866312,-2.8915 0.363744,0.17797 0.835613,0.54724 1.334632,1.04447 0.972443,0.96894 2.74884,3.25546 2.655062,3.41751 -0.03765,0.0651 -0.371987,0.47888 -0.742967,0.9196 -1.168458,1.38812 -2.467391,2.33611 -3.622252,2.64362 -0.628456,0.16733 -1.776967,0.15868 -2.435304,-0.0184 z m 6.653774,-5.88237 c -2.156349,-2.76788 -3.40312,-3.6372 -5.202838,-3.62772 -1.330234,0.007 -2.563531,0.47923 -3.675019,1.40714 l -0.639981,0.53428 0.142996,-0.48152 c 0.883606,-2.97543 3.251684,-5.76248 6.06336,-7.13612 1.705531,-0.83324 3.281183,-1.19329 5.233834,-1.19597 2.462133,-0.003 4.563311,0.64498 6.678083,2.06064 0.926746,0.62037 2.411738,2.10919 3.040784,3.04862 0.703706,1.05093 0.70386,1.05279 0.06859,0.82951 -0.722392,-0.2539 -2.042632,-0.37953 -2.920455,-0.27791 -2.49503,0.28885 -4.463929,1.7169 -7.049599,5.11308 l -0.754358,0.99082 z"
       id="path1" /></g></svg>
