<svg width="58" height="58" viewBox="0 0 58 58" fill="none" xmlns="http://www.w3.org/2000/svg">
<path fill-rule="evenodd" clip-rule="evenodd" d="M47.4677 0C39.4994 0 33.0398 6.44354 33.0398 14.3921V25.33H43.5721C51.5404 25.33 58 18.8865 58 10.938V0H47.4677ZM13.5622 58C21.5305 58 27.99 51.5565 27.99 43.6079V29.6476H14.4279C6.45957 29.6476 -1.88027e-07 36.0912 0 44.0397L3.3024e-07 58H13.5622ZM27.99 15.5434C27.99 7.59491 21.5305 1.15136 13.5622 1.15136H4.18408V10.938C4.18408 18.8865 10.6437 25.33 18.6119 25.33H27.99V15.5434ZM47.4677 51.8114C39.4994 51.8114 33.0398 45.3679 33.0398 37.4194V29.6476H40.398C48.3663 29.6476 54.8259 36.0912 54.8259 44.0397V51.8114H47.4677Z" fill="#5FA573"/>
</svg>
