<svg width="132" height="30" viewBox="0 0 132 30" fill="none" xmlns="http://www.w3.org/2000/svg">
<g clip-path="url(#clip0_29_403)">
<path fill-rule="evenodd" clip-rule="evenodd" d="M78.89 13.6841V21.0525H80.3373H81.7847V20.1973C81.7847 19.7269 81.8289 19.3455 81.8834 19.35C81.9376 19.3545 82.1615 19.6061 82.381 19.9092C82.9897 20.7498 83.876 21.1773 85.0178 21.1811C86.2628 21.1851 87.0389 20.8984 87.8915 20.1191C89.0618 19.0496 89.5478 17.6886 89.5478 15.4816C89.5478 13.5538 89.101 12.2191 88.0881 11.1201C87.1734 10.1279 85.4057 9.63081 84.096 9.99752C83.4436 10.18 82.5418 10.8833 82.1628 11.505C81.9181 11.9063 81.9171 11.8975 81.9168 9.11173L81.9163 6.31567H80.4031H78.89V13.6841ZM57.8676 10.0636C55.9431 10.6061 55.0371 11.6349 55.0181 13.2995C54.9973 15.1338 56.0789 16.0137 59.126 16.6417C60.8718 17.0016 61.3478 17.2208 61.4739 17.723C61.6676 18.4945 60.8847 19.0792 59.6594 19.0783C58.8379 19.0778 58.201 18.7508 57.8626 18.1558C57.6613 17.8024 57.5752 17.7646 56.9684 17.7638C56.5992 17.7634 55.9339 17.8009 55.4902 17.8474C54.7018 17.9298 54.6855 17.9395 54.766 18.275C54.9734 19.1403 55.6542 20.0211 56.5215 20.5465C57.8981 21.3805 60.7018 21.4699 62.3686 20.7328C63.8892 20.0603 64.6089 18.9784 64.525 17.4915C64.4881 16.84 64.395 16.4982 64.1607 16.1565C63.5484 15.2626 62.7734 14.9396 59.6589 14.2799C58.0618 13.9415 57.5689 13.2744 58.3439 12.4995C58.7639 12.0794 59.4489 11.9011 60.1426 12.0312C60.6597 12.1282 61.5215 12.8116 61.5215 13.1246C61.5215 13.2955 61.661 13.3142 62.4097 13.2436C62.8981 13.1974 63.52 13.1592 63.7913 13.1587C64.1992 13.1579 64.2847 13.1115 64.2847 12.8904C64.2847 12.013 63.3205 10.8515 62.16 10.3307C61.4757 10.0237 61.1281 9.95857 59.9544 9.91712C58.9873 9.88304 58.3489 9.92791 57.8676 10.0636ZM95.0773 10.0792C93.6544 10.4616 92.4505 11.4809 91.8357 12.8236C91.1165 14.3946 91.12 16.7965 91.8436 18.3771C92.7905 20.4455 95.0315 21.5112 97.7239 21.173C99.6739 20.9283 101.082 19.902 101.62 18.3342L101.763 17.9184L100.397 17.8253L99.0305 17.7323L98.6813 18.1471C98.19 18.7311 97.6994 18.9473 96.8655 18.9473C96.0355 18.9473 95.5344 18.787 95.0897 18.3792C94.6989 18.0211 94.2913 17.1565 94.2876 16.6775L94.2847 16.3157H98.0347H101.785V15.3807C101.785 13.7045 101.292 12.3148 100.354 11.3487C99.1094 10.0662 97.0076 9.56054 95.0773 10.0792ZM108.499 10.0766C107.868 10.3503 107.602 10.6175 107.198 11.3815L106.85 12.0394L106.812 11.0196L106.774 9.99988H105.332H103.89V15.5262V21.0525H105.403H106.916V17.6184C106.916 13.7875 106.957 13.573 107.799 12.9301C108.315 12.5371 109.456 12.3712 109.924 12.6213C110.079 12.7044 110.206 12.7487 110.206 12.7198C110.206 12.6909 110.409 12.1215 110.657 11.4545L111.108 10.2416L110.661 10.0549C110.085 9.81436 109.08 9.82449 108.499 10.0766ZM117.245 10.0525C116.708 10.2892 116.136 10.8836 115.862 11.4883C115.651 11.9544 115.63 11.9683 115.554 11.6857C115.509 11.5183 115.472 11.0707 115.471 10.6907L115.469 9.99988H114.022H112.574V15.5262V21.0525H114.087H115.6V17.673C115.6 14.5108 115.618 14.2569 115.876 13.7238C116.065 13.3341 116.338 13.0449 116.741 12.8088C117.263 12.5033 117.424 12.4724 118.151 12.5403L118.972 12.6169L119.391 11.457C119.622 10.8191 119.811 10.2657 119.811 10.2271C119.811 10.1887 119.624 10.0923 119.397 10.0128C118.839 9.81831 117.73 9.83883 117.245 10.0525ZM42.5221 11.5459C42.4776 12.3963 42.4878 14.3084 42.5447 15.7953C42.6442 18.3911 42.6631 18.5288 43.02 19.2582C43.6189 20.482 44.811 21.1853 46.2836 21.1833C47.5368 21.1817 48.7863 20.5296 49.3171 19.6001C49.4802 19.3145 49.6578 19.0804 49.7123 19.0799C49.7665 19.0792 49.811 19.5229 49.811 20.0657V21.0525H51.2584H52.7057V15.5262V9.99988H51.1926H49.6794L49.6763 13.1907C49.6728 16.5116 49.6 17.1911 49.1865 17.7448C48.7131 18.379 48.271 18.609 47.525 18.609C46.7192 18.609 46.2439 18.3563 45.8579 17.723C45.62 17.3329 45.6013 17.0383 45.601 13.6512L45.6005 9.99988H44.1018H42.6031L42.5221 11.5459ZM97.6173 12.2846C97.8536 12.3833 98.2047 12.6516 98.3976 12.8808C98.7531 13.3034 99.0684 14.1596 98.9428 14.3625C98.9052 14.4236 97.8339 14.4736 96.5623 14.4736H94.2502L94.3268 14.0008C94.5497 12.6286 96.2802 11.7259 97.6173 12.2846ZM85.4397 12.7162C86.0126 13.1532 86.3771 13.9669 86.4763 15.03C86.6786 17.1953 85.6842 18.8157 84.1531 18.8157C82.6221 18.8157 81.6276 17.1953 81.8297 15.03C81.9594 13.6403 82.5623 12.6461 83.445 12.3661C84.0481 12.1748 84.9336 12.3303 85.4397 12.7162Z" fill="white"/>
<path d="M131.653 10H130.031H128.409L127.252 14.0789C126.615 16.3224 126.057 18.1579 126.011 18.1579C125.966 18.1579 125.419 16.3371 124.795 14.1118L123.66 10.0658L122.064 10.0288C121.187 10.0086 120.469 10.0086 120.469 10.0288C120.469 10.0492 121.357 12.6104 122.443 15.7205C124.634 21.9963 124.604 21.8343 123.722 22.5763C123.353 22.8867 123.234 22.9158 122.625 22.8442L121.941 22.7638L121.658 23.7175C121.502 24.242 121.346 24.77 121.311 24.8908C121.26 25.0667 121.397 25.1417 121.995 25.2659C124.019 25.6861 126.08 24.7961 126.927 23.1366C127.079 22.8392 128.14 19.9247 129.286 16.6599C130.432 13.395 131.429 10.5757 131.503 10.3947L131.653 10Z" fill="white"/>
<path fill-rule="evenodd" clip-rule="evenodd" d="M69.9457 10C68.5228 10.3824 67.3189 11.4017 66.7041 12.7444C65.9849 14.3154 65.9883 16.7173 66.712 18.2979C67.6589 20.3663 69.8999 21.432 72.5923 21.0938C74.5423 20.8491 75.9507 19.8228 76.4884 18.255L76.631 17.8392L75.2649 17.7461L73.8989 17.653L73.5497 18.0679C73.0584 18.6519 72.5678 18.868 71.7339 18.868C70.9039 18.868 70.4028 18.7078 69.9581 18.3C69.5673 17.9419 69.1597 17.0773 69.156 16.5983L69.1531 16.2365H72.9031H76.6531V15.3015C76.6531 13.6253 76.1599 12.2355 75.2226 11.2695C73.9778 9.987 71.876 9.48134 69.9457 10ZM73.266 12.8016C73.0731 12.5724 72.722 12.3041 72.4857 12.2054C71.1486 11.6467 69.4181 12.5494 69.1952 13.9216L69.1186 14.3944H71.4307C72.7023 14.3944 73.7736 14.3444 73.8112 14.2833C73.9368 14.0804 73.6215 13.2242 73.266 12.8016Z" fill="white"/>
<path d="M0.125977 0H15.126V30C6.84171 30 0.125977 23.2843 0.125977 15V0Z" fill="white"/>
<path d="M30.126 15H15.126V30C23.4102 30 30.126 23.2843 30.126 15Z" fill="white"/>
<path d="M22.626 15C26.7681 15 30.126 11.6421 30.126 7.5C30.126 3.35786 26.7681 0 22.626 0C18.4838 0 15.126 3.35786 15.126 7.5C15.126 11.6421 18.4838 15 22.626 15Z" fill="white"/>
</g>
<defs>
<clipPath id="clip0_29_403">
<rect width="131.579" height="30" fill="white" transform="translate(0.125977)"/>
</clipPath>
</defs>
</svg>
