<svg width="154" height="30" viewBox="0 0 154 30" fill="none" xmlns="http://www.w3.org/2000/svg">
<g clip-path="url(#clip0_29_400)">
<path d="M102.995 25.4458C104.975 25.4458 106.956 24.6839 108.479 23.3127L111.222 26.2078C109.089 28.3409 106.194 29.5599 103.147 29.4075C96.5957 29.4075 92.1772 24.9888 92.1772 19.0463C92.0248 13.4085 96.4433 8.83743 102.08 8.68506C102.233 8.68506 102.385 8.68506 102.538 8.68506C109.089 8.68506 112.898 13.7133 112.593 20.7223H96.9004C97.3574 23.7698 100.1 25.7505 102.995 25.4458ZM107.718 17.3702C107.565 14.6275 105.28 12.4943 102.538 12.6467C99.6429 12.4943 97.2051 14.4751 96.9004 17.3702H107.718Z" fill="white"/>
<path d="M0.000244141 25.2936L12.0366 13.1039H0.304962V9.29468H17.5215V13.2563L5.48517 25.446H17.6739V29.2553H0.000244141V25.2936Z" fill="white"/>
<path d="M31.9956 25.4459C33.9763 25.4459 35.9569 24.6839 37.4806 23.3126L40.223 26.2076C38.09 28.4933 35.0428 29.7123 31.9956 29.5597C25.2918 29.5597 21.0258 25.141 21.0258 19.1986C20.8734 13.5609 25.2918 8.98977 30.9292 8.8374C31.0815 8.8374 31.2339 8.8374 31.3862 8.8374C37.9376 8.8374 41.7465 13.8656 41.2895 20.8747H25.9012C26.3583 23.7698 29.1008 25.7506 31.9956 25.4459ZM36.7188 17.3702C36.5665 14.6275 34.281 12.4943 31.5386 12.6467C28.7961 12.4943 26.3583 14.4751 25.9012 17.3702H36.7188Z" fill="white"/>
<path d="M67.3428 19.1987C67.0381 13.7134 71.3043 8.98987 76.7891 8.8375C76.9414 8.8375 77.094 8.8375 77.2463 8.8375C79.8362 8.8375 82.274 9.90409 83.7977 11.8849V0H88.0637V29.1028H83.7977V26.3601C82.1217 28.3409 79.6839 29.5599 77.0938 29.5599C71.609 29.5599 67.0381 24.9888 67.1905 19.5035C67.3428 19.3511 67.3428 19.1987 67.3428 19.1987ZM84.1024 19.1987C84.1024 15.6942 81.2076 12.9515 77.8557 12.9515C74.3515 12.9515 71.609 15.8466 71.609 19.1987C71.609 22.7031 74.5038 25.4458 77.8557 25.4458C81.3599 25.4458 84.1024 22.7031 84.1024 19.1987Z" fill="white"/>
<path d="M115.183 24.9886L118.992 22.8555C120.059 24.6839 122.039 25.7506 124.02 25.7506C126.458 25.7506 127.677 24.5316 127.677 23.1602C127.677 21.7889 125.391 21.1794 122.801 20.7223C119.449 19.9605 115.945 18.8939 115.945 14.7799C115.945 11.5801 118.992 8.68505 123.715 8.68505C126.915 8.53268 129.962 9.90401 131.79 12.4943L128.286 14.6275C127.22 13.1038 125.544 12.3419 123.868 12.3419C121.582 12.3419 120.516 13.4085 120.516 14.7799C120.516 16.1512 122.344 16.6083 125.239 17.2178C128.591 17.9797 132.247 19.0462 132.247 23.1602C132.247 25.9029 129.81 29.5597 124.173 29.5597C120.364 29.8646 116.859 28.036 115.183 24.9886Z" fill="white"/>
<path d="M142.913 20.2653L139.561 23.9221V29.1028H135.295V0H139.561V19.0463L148.55 9.14224H153.73L145.96 17.675L153.883 29.1028H149.159L142.913 20.2653Z" fill="white"/>
<path d="M54.6972 8.8374C49.6693 8.8374 45.4033 12.1895 45.4033 17.5225V29.255H49.6693V18.132C49.3646 15.5417 51.193 13.2562 53.7831 12.9514C54.0878 12.9514 54.3925 12.9514 54.6972 12.9514C57.8967 12.9514 59.4204 14.9322 59.4204 18.132V29.255H63.9911V17.5225C63.9911 12.0372 59.7251 8.8374 54.6972 8.8374Z" fill="white"/>
</g>
<defs>
<clipPath id="clip0_29_400">
<rect width="153.882" height="29.5928" fill="white"/>
</clipPath>
</defs>
</svg>
